<?xml version="1.0" encoding="UTF-8"?>
<svg width="4px" height="7px" viewBox="0 0 4 7" version="1.1" xmlns="http://www.w3.org/2000/svg" xmlns:xlink="http://www.w3.org/1999/xlink">
    <!-- Generator: Sketch 49.2 (51160) - http://www.bohemiancoding.com/sketch -->
    <title>Group 8</title>
    <desc>Created with Sketch.</desc>
    <defs></defs>
    <g id="Page-1" stroke="none" stroke-width="1" fill="none" fill-rule="evenodd">
        <g id="marie-combes.com-home-hover" transform="translate(-1025.000000, -839.000000)" fill="#0F132D">
            <g id="Group-11" transform="translate(960.000000, 831.000000)">
                <g id="Group-8" transform="translate(67.000000, 11.500000) rotate(-90.000000) translate(-67.000000, -11.500000) translate(63.500000, 9.500000)">
                    <path d="M0,0 L1.4,0 L1.4,1.33333333 L0,1.33333333 L0,0 Z M1.4,1.33333333 L2.8,1.33333333 L2.8,2.66666667 L1.4,2.66666667 L1.4,1.33333333 Z M2.8,2.66666667 L4.2,2.66666667 L4.2,4 L2.8,4 L2.8,2.66666667 Z M4.2,1.33333333 L5.6,1.33333333 L5.6,2.66666667 L4.2,2.66666667 L4.2,1.33333333 Z M5.6,0 L7,0 L7,1.33333333 L5.6,1.33333333 L5.6,0 Z" id="Combined-Shape"></path>
                </g>
            </g>
        </g>
    </g>
</svg>